<?xml version="1.0" encoding="UTF-8" standalone="no"?>
<svg
   width="2048"
   height="2048"
   viewBox="0 0 2048 2048"
   fill="none"
   version="1.1"
   id="svg6"
   sodipodi:docname="Frame 5.svg"
   inkscape:export-filename="logo.png"
   inkscape:export-xdpi="24"
   inkscape:export-ydpi="24"
   inkscape:version="1.3.2 (091e20e, 2023-11-25)"
   xmlns:inkscape="http://www.inkscape.org/namespaces/inkscape"
   xmlns:sodipodi="http://sodipodi.sourceforge.net/DTD/sodipodi-0.dtd"
   xmlns="http://www.w3.org/2000/svg"
   xmlns:svg="http://www.w3.org/2000/svg">
  <defs
     id="defs6" />
  <sodipodi:namedview
     id="namedview6"
     pagecolor="#ffffff"
     bordercolor="#000000"
     borderopacity="0.25"
     inkscape:showpageshadow="2"
     inkscape:pageopacity="0.0"
     inkscape:pagecheckerboard="0"
     inkscape:deskcolor="#d1d1d1"
     inkscape:zoom="0.22627417"
     inkscape:cx="276.21359"
     inkscape:cy="755.72037"
     inkscape:window-width="1920"
     inkscape:window-height="1016"
     inkscape:window-x="0"
     inkscape:window-y="27"
     inkscape:window-maximized="1"
     inkscape:current-layer="svg6" />
  <rect
     x="274.61743"
     y="362.04556"
     width="1498.7645"
     height="1074.1147"
     rx="74.938217"
     fill="#5583f9"
     id="rect1"
     style="stroke-width:24.9793" />
  <path
     d="m 297.08519,1530.0479 c 9.47568,-11.9702 23.90378,-18.9495 39.16896,-18.9495 h 213.13678 474.60887 474.6087 213.1368 c 15.2649,0 29.6929,6.9793 39.1701,18.9495 l 158.2021,199.8354 c 25.9288,32.7504 2.603,80.9682 -39.1702,80.9682 H 178.05206 c -41.77229,0 -65.09807,-48.2178 -39.16995,-80.9682 z"
     fill="#5583f9"
     id="path1"
     style="stroke-width:24.9793" />
  <path
     d="m 836.65408,1660.975 h 62.44853 124.89719 124.8971 62.4484 l 62.4485,74.9382 H 774.20562 Z"
     fill="#ffffff"
     id="path2"
     style="stroke-width:24.9793" />
  <path
     d="m 349.55569,237.1485 674.44411,81.90925 v 170.6451 307.15937 614.31858 L 349.55569,1329.2709 V 1104.0214 796.86222 489.70285 Z"
     fill="#5583f9"
     id="path3"
     style="stroke-width:24.9793" />
  <path
     d="m 399.5145,287.10732 599.50582,74.93826 V 518.16688 799.1853 1361.222 L 399.5145,1286.2838 V 1080.2036 799.1853 518.16688 Z"
     fill="#ffffff"
     id="path4"
     style="stroke-width:24.9793" />
  <path
     d="m 1698.4436,237.1485 -674.4438,81.90925 v 170.6451 307.15937 614.31858 l 674.4438,-81.9099 V 1104.0214 796.86222 489.70285 Z"
     fill="#5583f9"
     id="path5"
     style="stroke-width:24.9793" />
  <path
     d="m 1648.485,287.10732 -599.5059,74.93826 v 156.1213 281.01842 562.0367 l 599.5059,-74.9382 V 1080.2036 799.1853 518.16688 Z"
     fill="#ffffff"
     id="path6"
     style="stroke-width:24.9793" />
</svg>
